HIERARCHY
ROOT Hips
{
	OFFSET 0.000000 0.000000 0.000000 
	CHANNELS 6 Xposition Yposition Zposition Zrotation Yrotation Xrotation
	JOINT LeftUpLeg
	{
		OFFSET 1.363060 -1.794630 0.839290 
		CHANNELS 3 Zrotation Yrotation Xrotation
		JOINT LeftLeg
		{
			OFFSET 2.448110 -6.726130 0.000000 
			CHANNELS 3 Zrotation Yrotation Xrotation
			JOINT LeftFoot
			{
				OFFSET 2.562200 -7.039590 0.000000 
				CHANNELS 3 Zrotation Yrotation Xrotation
				JOINT LeftToeBase
				{
					OFFSET 0.157640 -0.433110 2.322550 
					CHANNELS 3 Zrotation Yrotation Xrotation
					End Site
					{
						OFFSET 0.000000 0.000000 0.000000 
					}
				}
			}
		}
	}
	JOINT RightUpLeg
	{
		OFFSET -1.305520 -1.794630 0.839290 
		CHANNELS 3 Zrotation Yrotation Xrotation
		JOINT RightLeg
		{
			OFFSET -2.542530 -6.985550 0.000000 
			CHANNELS 3 Zrotation Yrotation Xrotation
			JOINT RightFoot
			{
				OFFSET -2.568260 -7.056230 0.000000 
				CHANNELS 3 Zrotation Yrotation Xrotation
				JOINT RightToeBase
				{
					OFFSET -0.164730 -0.452590 2.363150 
					CHANNELS 3 Zrotation Yrotation Xrotation
					End Site
					{
						OFFSET 0.000000 0.000000 0.000000 
					}
				}
			}
		}
	}
	JOINT Spine
	{
		OFFSET 0.028270 2.035590 -0.193380 
		CHANNELS 3 Zrotation Yrotation Xrotation
		JOINT Spine1
		{
			OFFSET 0.056720 2.048850 -0.042750 
			CHANNELS 3 Zrotation Yrotation Xrotation
			JOINT Neck1
			{
				OFFSET -0.054170 1.746240 0.172020 
				CHANNELS 3 Zrotation Yrotation Xrotation
				JOINT Head
				{
					OFFSET 0.104070 1.761360 -0.123970 
					CHANNELS 3 Zrotation Yrotation Xrotation
					End Site
					{
						OFFSET 0.000000 0.000000 0.000000 
					}
				}
			}
			JOINT LeftArm
			{
				OFFSET 3.362410 1.200890 -0.311210 
				CHANNELS 3 Zrotation Yrotation Xrotation
				JOINT LeftForeArm
				{
					OFFSET 4.983000 -0.000000 -0.000000 
					CHANNELS 3 Zrotation Yrotation Xrotation
					JOINT LeftHand
					{
						OFFSET 3.483560 -0.000000 -0.000000 
						CHANNELS 3 Zrotation Yrotation Xrotation
						JOINT LeftHandIndex1
						{
							OFFSET 0.715260 -0.000000 -0.000000 
							CHANNELS 3 Zrotation Yrotation Xrotation
							End Site
							{
								OFFSET 0.000000 0.000000 0.000000 
							}
						}
					}
				}
			}
			JOINT RightArm
			{
				OFFSET -3.136600 1.374050 -0.404650 
				CHANNELS 3 Zrotation Yrotation Xrotation
				JOINT RightForeArm
				{
					OFFSET -5.241900 -0.000000 -0.000000 
					CHANNELS 3 Zrotation Yrotation Xrotation
					JOINT RightHand
					{
						OFFSET -3.444170 -0.000000 -0.000000 
						CHANNELS 3 Zrotation Yrotation Xrotation
						JOINT RightHandIndex1
						{
							OFFSET -0.622530 -0.000000 -0.000000 
							CHANNELS 3 Zrotation Yrotation Xrotation
							End Site
							{
								OFFSET 0.000000 0.000000 0.000000 
							}
						}
					}
				}
			}
		}
	}
}
MOTION
Frames: 10
Frame Time: 0.041667
-15.267507 17.893364 12.768289 1.110624 -43.601923 0.525484 -15.785983 -7.377333 -9.368601 -0.204568 7.063876 21.214058 -0.057529 0.735985 -2.238098 0.006900 0.536500 1.474300 21.740480 5.001318 -9.640918 -1.934584 -9.139094 27.761417 -0.691553 1.838213 -5.085953 -0.184700 -2.768300 7.634300 1.537530 1.121613 0.617768 -0.176083 0.522441 -3.092286 4.369021 -3.731072 19.825359 3.360100 -2.417500 14.535600 -85.371169 3.033400 22.171732 14.756063 -20.786203 -3.200885 -1.244592 -2.337263 9.859111 -7.125000 0.000000 0.000000 85.432295 -1.417389 17.319712 -14.958558 22.164413 -3.116589 0.299300 -0.256922 10.427244 7.125000 0.000000 0.000000 
-15.267808 17.892863 12.767488 1.109869 -43.625211 0.562712 -15.776770 -7.302039 -9.450724 -0.199953 7.072226 21.238042 -0.049412 0.680453 -2.208587 0.005200 0.465500 1.279000 21.738696 5.033392 -9.661392 -1.931026 -9.132821 27.742203 -0.692888 1.845959 -5.081841 -0.191900 -2.821000 7.780700 1.548808 1.141604 0.591703 -0.166052 0.533237 -3.113538 4.353275 -3.696032 19.817230 3.366300 -2.411800 14.503700 -85.462490 3.132717 22.010638 14.805905 -20.857473 -3.223601 -1.243937 -2.328066 10.061929 -7.125000 0.000000 0.000000 85.385283 -1.587066 17.552758 -15.018985 22.246652 -3.141318 0.306354 -0.253848 10.125924 7.125000 0.000000 0.000000 
-15.267007 17.892563 12.766687 1.140339 -43.613244 0.549139 -15.798394 -7.257205 -9.475111 -0.200220 7.068545 21.229776 -0.042461 0.628579 -2.170183 0.004400 0.429300 1.179500 21.710140 5.006465 -9.697288 -1.936107 -9.141728 27.769698 -0.693759 1.856570 -5.055375 -0.185000 -2.770400 7.640200 1.537638 1.112842 0.576808 -0.174509 0.520517 -3.141414 4.317830 -3.654276 19.788106 3.334900 -2.385900 14.468500 -85.501499 3.154674 21.802900 14.833149 -20.895557 -3.234692 -1.236547 -2.330747 10.199731 -7.125000 0.000000 0.000000 85.411544 -1.715960 17.754780 -15.076539 22.328247 -3.166743 0.305612 -0.253747 9.967400 7.125000 0.000000 0.000000 
-15.266707 17.892162 12.763584 1.172035 -43.587647 0.509338 -15.836713 -7.176712 -9.490657 -0.198799 7.069635 21.234972 -0.047121 0.656908 -2.165194 0.000300 -0.109500 -0.300900 21.695480 5.022130 -9.695162 -1.939548 -9.148866 27.791164 -0.685544 1.815224 -5.041964 -0.180500 -2.736300 7.545500 1.550212 1.080500 0.554612 -0.108032 0.506733 -3.215274 4.246535 -3.602773 19.797159 3.295800 -2.366500 14.455500 -85.563015 3.178807 21.651520 14.834287 -20.894073 -3.233913 -1.220730 -2.339918 10.264480 -7.125000 0.000000 0.000000 85.390442 -1.797018 17.817659 -15.070138 22.318918 -3.165571 0.296830 -0.252063 10.015064 7.125000 0.000000 0.000000 
-15.266406 17.890561 12.762082 1.171821 -43.580485 0.516805 -15.867570 -7.020151 -9.540651 -0.199233 7.066102 21.224486 -0.053845 0.698784 -2.146749 0.016900 -0.840400 -2.309700 21.694936 4.986423 -9.742220 -1.946153 -9.160295 27.826672 -0.694446 1.855941 -5.070374 -0.182400 -2.750900 7.586100 1.552973 1.072694 0.537919 -0.100919 0.504186 -3.240988 4.174598 -3.558018 19.814744 3.264000 -2.354800 14.442800 -85.565822 3.201272 21.655187 14.831440 -20.891304 -3.232262 -1.217484 -2.356074 10.193702 -7.125000 0.000000 0.000000 85.407494 -1.871406 17.859237 -15.099119 22.356646 -3.178282 0.292751 -0.237053 10.092459 7.125000 0.000000 0.000000 
-15.265906 17.889660 12.761882 1.202685 -43.602859 0.489398 -15.907965 -6.918958 -9.555712 -0.201949 7.056491 21.198718 -0.053530 0.689450 -2.104955 0.025500 -1.030200 -2.831900 21.661959 4.938244 -9.776953 -1.953052 -9.171207 27.861241 -0.709460 1.937277 -5.063542 -0.183400 -2.758200 7.606300 1.545998 1.049759 0.521092 -0.109581 0.493664 -3.268596 4.189228 -3.488456 19.787995 3.283800 -2.326200 14.396500 -85.544791 3.248290 21.676956 14.838563 -20.904540 -3.236283 -1.210634 -2.363977 10.045565 -7.125000 0.000000 0.000000 85.437022 -1.933354 17.891970 -15.091039 22.342829 -3.174776 0.292830 -0.231508 10.205468 7.125000 0.000000 0.000000 
-15.266106 17.890461 12.759479 1.324805 -43.646323 0.393375 -15.983839 -7.043395 -9.481618 -0.209356 7.043238 21.162206 -0.061216 0.739707 -2.142055 0.004700 -0.440400 -1.210100 21.565911 4.945334 -9.786719 -1.957765 -9.180741 27.888024 -0.714845 1.963919 -5.064632 -0.185800 -2.776500 7.657100 1.528975 1.039287 0.526530 -0.078748 0.488722 -3.248680 4.276735 -3.459202 19.848956 3.336700 -2.309500 14.427700 -85.525163 3.239682 21.667896 14.831151 -20.894295 -3.233688 -1.204294 -2.353850 10.001668 -7.125000 0.000000 0.000000 85.464429 -1.882040 17.833984 -15.015576 22.236859 -3.142189 0.295656 -0.244974 10.358250 7.125000 0.000000 0.000000 
-15.267307 17.892563 12.758478 1.352185 -43.702238 0.379240 -15.970251 -7.267774 -9.374126 -0.219804 7.026781 21.112916 -0.073995 0.828236 -2.190174 0.004500 0.434300 1.193300 21.542309 4.994983 -9.790902 -1.961753 -9.188566 27.911004 -0.719597 1.997005 -5.032274 -0.213100 -2.971700 8.200000 1.510549 1.050289 0.558387 -0.103190 0.492729 -3.144652 4.311466 -3.451388 19.849070 3.346900 -2.296300 14.432500 -85.499304 3.164388 21.644046 14.823947 -20.884632 -3.229254 -1.230362 -2.340644 9.999434 -7.125000 0.000000 0.000000 85.529576 -1.795528 17.783024 -14.969614 22.174795 -3.123113 0.296827 -0.253229 10.395323 7.125000 0.000000 0.000000 
-15.267307 17.894565 12.757577 1.416902 -43.729317 0.335812 -15.999737 -7.353822 -9.327681 -0.226163 7.013997 21.076834 -0.076564 0.840892 -2.181999 0.020700 0.928500 2.552100 21.489262 5.027447 -9.801767 -1.965964 -9.196926 27.935427 -0.721679 2.010549 -5.018579 -0.216600 -2.995900 8.267300 1.503325 1.059167 0.567638 -0.091331 0.496691 -3.115515 4.344956 -3.475964 19.849991 3.366000 -2.307000 14.437600 -85.525622 3.139338 21.630014 14.820568 -20.879093 -3.226308 -1.268582 -2.322929 10.000835 -7.125000 0.000000 0.000000 85.525671 -1.753022 17.767695 -14.930848 22.118290 -3.106468 0.296870 -0.250123 10.264570 7.125000 0.000000 0.000000 
-15.267207 17.894265 12.753973 1.482251 -43.731905 0.283614 -16.051816 -7.194877 -9.378954 -0.227360 7.005033 21.053884 -0.063907 0.749392 -2.122225 0.006000 0.501200 1.377100 21.446273 5.028564 -9.824818 -1.972897 -9.208988 27.972773 -0.727431 2.039933 -5.021168 -0.219800 -3.017900 8.328700 1.506296 1.067529 0.553146 -0.037533 0.501815 -3.157717 4.370796 -3.523158 19.895483 3.384600 -2.333900 14.469400 -85.538196 3.187736 21.752054 14.828144 -20.891056 -3.231454 -1.278683 -2.310418 9.900926 -7.125000 0.000000 0.000000 85.531750 -1.776873 17.723220 -14.920903 22.098943 -3.100689 0.300345 -0.246627 10.240754 7.125000 0.000000 0.000000 
